<svg id="Layer_1" data-name="Layer 1" xmlns="http://www.w3.org/2000/svg" xmlns:xlink="http://www.w3.org/1999/xlink" viewBox="0 0 150 150">
  <defs>
    <style>
      .cls-1 {
        fill: url(#linear-gradient);
      }

      .cls-2 {
        fill: #fff;
      }
    </style>
    <linearGradient id="linear-gradient" x1="10.04" y1="112.51" x2="139.96" y2="37.49" gradientUnits="userSpaceOnUse">
      <stop offset="0" stop-color="#2170b4"/>
      <stop offset="0.99" stop-color="#21b18f"/>
    </linearGradient>
  </defs>
  <title>smicon</title>
  <circle class="cls-1" cx="75" cy="75" r="75"/>
  <path class="cls-2" d="M25.1,85.26A25.49,25.49,0,0,1,27.17,79a18.7,18.7,0,0,1,6.71-7.29,1.52,1.52,0,0,0,.85-1.86c-1.48-7.77,4.43-15.8,12.3-16.79a14.53,14.53,0,0,1,9.7,2c.62.37.88.34,1.23-.34,4.52-8.63,11.57-14,21.2-15.4,10.91-1.57,20,2.13,26.93,10.79A27,27,0,0,1,112,68.44a1.51,1.51,0,0,0,1.1,1.73,19.13,19.13,0,0,1-4.39,36.59,29.09,29.09,0,0,1-4.27.29q-29.5,0-59,0c-5.37,0-10.19-1.41-14.21-5.1a19.11,19.11,0,0,1-6-11c0-.22-.1-.44-.15-.66Zm33.74-16.7c-.52,0-1,0-1.56,0a16,16,0,0,0-10,3.82c-4.37,4-5.67,9-4.81,14.68,1,7,7.88,12.94,14.92,13.13,5.78.16,10.56-2.22,14.91-5.74.41-.33.4-.57.07-.94-1.24-1.42-2.48-2.83-3.68-4.28-.47-.57-.83-.55-1.36-.1A19.17,19.17,0,0,1,63,91.88c-5.31,2.47-10.73.59-12.9-4.48-1.59-3.7-.37-8.29,2.86-10.05,3.84-2.09,7.79-2.34,11.68,0a23.57,23.57,0,0,1,7,6.3c3,4,6,8,9.92,11.19,4.45,3.68,9.29,6.13,15.33,5.23,4.2-.63,7.89-2.17,10.55-5.6a15.94,15.94,0,0,0,0-19.54,15.5,15.5,0,0,0-15.45-6.16c-4.37.65-8,2.8-11.41,5.56-.54.44-.19.72.08,1,1.12,1.3,2.33,2.54,3.36,3.91.66.86,1.09.75,1.83.14a16.72,16.72,0,0,1,5.86-3.18,8.88,8.88,0,0,1,10.54,3.9c2.39,4,1.41,9.25-2.36,11.43a9.36,9.36,0,0,1-10,.14,37.45,37.45,0,0,1-10.48-9.9,46.59,46.59,0,0,0-7.31-8C68.21,70.54,64,68.45,58.84,68.56Z"/>
</svg>
