<svg id="Layer_1" data-name="Layer 1" xmlns="http://www.w3.org/2000/svg" xmlns:xlink="http://www.w3.org/1999/xlink" viewBox="0 0 150 150">
  <defs>
    <style>
      .cls-1 {
        fill: url(#linear-gradient);
      }

      .cls-2 {
        fill: #fff;
      }
    </style>
    <linearGradient id="linear-gradient" x1="10.04" y1="112.51" x2="139.96" y2="37.49" gradientUnits="userSpaceOnUse">
      <stop offset="0" stop-color="#2170b4"/>
      <stop offset="0.99" stop-color="#21b18f"/>
    </linearGradient>
  </defs>
  <title>smicon</title>
  <circle class="cls-1" cx="75" cy="75" r="75"/>
  <g>
    <path class="cls-2" d="M75.52,38.52c1.92,0,4.18,0,6.43.09,2.64.09,5.28.22,7.91.42,1.76.13,3.52.26,5.27.42,1.57.14,3.14.31,4.7.5,1.84.21,3.68.43,5.51.68a20.49,20.49,0,0,1,5.53,1.21,13.9,13.9,0,0,1,8.32,9.73,49.08,49.08,0,0,1,.93,5.53c.23,1.66.42,3.33.57,5,.11,1.16.2,2.32.28,3.47.28,4.11.34,8.22.26,12.33,0,2.44-.17,4.88-.36,7.31-.16,2-.35,4.1-.62,6.14a42,42,0,0,1-1.2,7.06,13.73,13.73,0,0,1-11.33,10c-2.58.47-5.2.73-7.81,1s-5,.52-7.45.72c-2,.16-3.91.28-5.87.4-5.16.32-10.34.37-15.51.29-2.71,0-5.43-.15-8.14-.32-2.07-.13-4.13-.27-6.19-.46-2.43-.22-4.86-.46-7.29-.76s-4.65-.55-7-.93a13.71,13.71,0,0,1-8.69-5.12,14.65,14.65,0,0,1-3-7.06C30.4,93.6,30,91,29.76,88.3c-.2-2-.34-4-.46-6.06-.22-3.72-.22-7.45-.16-11.17,0-2.18.15-4.36.32-6.53A113.24,113.24,0,0,1,31,52.09,14,14,0,0,1,42.39,41c2.27-.37,4.55-.66,6.83-.93s4.38-.5,6.57-.7c1.82-.16,3.64-.3,5.47-.42,2.16-.14,4.33-.24,6.49-.33C70.23,38.54,72.7,38.51,75.52,38.52ZM35.78,73.08c-.06,1,0,2.1,0,3.15,0,1.65.06,3.29.14,4.93q.17,3.51.53,7,.39,3.84,1.07,7.64a7.34,7.34,0,0,0,6.16,6.06c2.16.34,4.32.61,6.48.87s4.42.5,6.63.69q3.07.28,6.16.46c2.45.14,4.9.28,7.35.33,2.18,0,4.36.12,6.54,0,1.81-.06,3.62,0,5.43-.11,2-.07,3.93-.19,5.9-.31,1.3-.08,2.6-.17,3.9-.28,1.56-.13,3.12-.28,4.67-.44s3.31-.36,5-.56,3.06-.44,4.59-.62a7.3,7.3,0,0,0,6.5-5.86A85.81,85.81,0,0,0,114,87q.31-3.2.44-6.42c.09-2.4.16-4.79.12-7.2s-.12-5-.29-7.52c-.12-1.84-.28-3.69-.48-5.52-.26-2.26-.6-4.5-1-6.73a7.33,7.33,0,0,0-5.87-6c-1.93-.34-3.88-.57-5.82-.81-2.15-.27-4.31-.49-6.47-.69s-4.06-.36-6.09-.5-4.13-.26-6.2-.32c-2.76-.08-5.52-.13-8.28-.11-3.62,0-7.23.12-10.84.35-1.44.1-2.89.16-4.33.29-2.4.21-4.8.42-7.19.69-2.71.31-5.41.65-8.11,1.06a7.37,7.37,0,0,0-6.15,6.07c-.36,2.15-.68,4.3-.94,6.47q-.42,3.69-.62,7.39C35.84,69.35,35.76,71.21,35.78,73.08Z"/>
    <path class="cls-2" d="M62,74.7v-16c0-.48,0-.49.43-.27L67.58,61,94.52,74.48c.12.06.33.09.33.23s-.21.18-.34.25l-32,16c-.51.26-.51.26-.51-.31Z"/>
  </g>
</svg>
