<svg id="Layer_1" data-name="Layer 1" xmlns="http://www.w3.org/2000/svg" xmlns:xlink="http://www.w3.org/1999/xlink" viewBox="0 0 150 150">
  <defs>
    <style>
      .cls-1 {
        fill: url(#linear-gradient);
      }

      .cls-2 {
        fill: #fff;
      }
    </style>
    <linearGradient id="linear-gradient" x1="10.04" y1="112.51" x2="139.96" y2="37.49" gradientUnits="userSpaceOnUse">
      <stop offset="0" stop-color="#2170b4"/>
      <stop offset="0.99" stop-color="#21b18f"/>
    </linearGradient>
  </defs>
  <title>smicon</title>
  <circle class="cls-1" cx="75" cy="75" r="75"/>
  <g>
    <path class="cls-2" d="M53.29,35H96.72c.26.06.51.13.78.17a19.84,19.84,0,0,1,11,5.39,20.11,20.11,0,0,1,6.55,14.9c0,1.52,0,3,0,4.57V94.65a18.94,18.94,0,0,1-1.52,7.5,20.77,20.77,0,0,1-13.8,12.21c-1,.29-2,.43-3,.64H53.29c-1.1-.32-2.26-.36-3.35-.71a20.94,20.94,0,0,1-11.83-9A19.62,19.62,0,0,1,35,94.71V90q0-17.28,0-34.57a19.8,19.8,0,0,1,4.9-13.09,20.27,20.27,0,0,1,11.92-7ZM42,75h0c0,6.35,0,12.69,0,19a13.42,13.42,0,0,0,2.09,7.53,13.22,13.22,0,0,0,11.54,6.48c13,.08,25.9,0,38.85,0a12.93,12.93,0,0,0,5.74-1.33,13.32,13.32,0,0,0,7.18-8.23,14.36,14.36,0,0,0,.73-4.2q0-19.18,0-38.39a13.58,13.58,0,0,0-4.3-10.17A13.26,13.26,0,0,0,94.48,42c-2.26,0-4.53,0-6.8,0H60c-1.89,0-3.79-.1-5.66.08a13.3,13.3,0,0,0-8.63,4.22,13,13,0,0,0-3.75,9C41.92,61.87,42,68.46,42,75Z"/>
    <path class="cls-2" d="M55.07,75.11C54.83,64.18,64.16,55,75.06,55a20,20,0,1,1-20,20.08ZM75,88.72A13.71,13.71,0,1,0,61.32,75,13.69,13.69,0,0,0,75,88.72Z"/>
    <path class="cls-2" d="M101.86,52.88a4.73,4.73,0,1,1-9.45,0,4.73,4.73,0,0,1,9.45,0Z"/>
  </g>
</svg>
